<svg xmlns="http://www.w3.org/2000/svg" width="32" height="32"><path fill="none" stroke-miterlimit="10" stroke-width=".938" stroke="#000" d="M7.37 28.75h17.26a4.12 4.12 0 0 0 4.12-4.12V7.37a4.12 4.12 0 0 0-4.12-4.12H7.37a4.12 4.12 0 0 0-4.12 4.12v17.26a4.12 4.12 0 0 0 4.12 4.12z"/><path fill="none" stroke-miterlimit="10" stroke-width=".938" stroke="#000" d="M22.842 16a6.842 6.842 0 1 1-13.684 0 6.842 6.842 0 1 1 13.684 0z"/><path fill="none" stroke-linejoin="round" stroke-linecap="round" stroke-miterlimit="10" stroke-width=".938" stroke="#000" d="m17.788 14.213-3.575 3.575M14.213 14.213l3.575 3.575"/></svg>