<svg aria-hidden="true" style="position: absolute; width: 0; height: 0; overflow: hidden;" version="1.1" xmlns="http://www.w3.org/2000/svg" xmlns:xlink="http://www.w3.org/1999/xlink">
<defs>
<symbol id="icon-arrowSmallCartLeft" viewBox="0 0 32 32">
<path fill="#b4afaf" style="fill: var(--color1, #b4afaf)" d="M14.133 16.946c-0.125-0.124-0.224-0.271-0.292-0.434s-0.103-0.337-0.103-0.513 0.035-0.35 0.103-0.513c0.068-0.163 0.167-0.31 0.292-0.434l6.12-6.107c0.125-0.124 0.224-0.271 0.292-0.434s0.103-0.337 0.103-0.513c0-0.176-0.035-0.35-0.103-0.513s-0.167-0.31-0.292-0.434c-0.25-0.248-0.588-0.388-0.94-0.388s-0.69 0.139-0.94 0.388l-6.12 6.12c-0.749 0.75-1.17 1.767-1.17 2.827s0.421 2.077 1.17 2.827l6.12 6.12c0.248 0.246 0.584 0.385 0.933 0.387 0.175 0.001 0.349-0.033 0.512-0.099s0.31-0.164 0.435-0.288c0.125-0.124 0.224-0.271 0.292-0.434s0.103-0.337 0.103-0.513c0-0.176-0.035-0.35-0.103-0.513s-0.167-0.31-0.292-0.434l-6.12-6.107z"></path>
</symbol>
<symbol id="icon-arrowSignIn" viewBox="0 0 32 32">
<path fill="none" stroke="#eac645" style="stroke: var(--color2, #eac645)" stroke-linejoin="round" stroke-linecap="round" stroke-miterlimit="4" stroke-width="3.2" d="M5.333 16h21.333M26.667 16l-8-8M26.667 16l-8 8"></path>
</symbol>
<symbol id="icon-arrowSmallCartRight" viewBox="0 0 32 32">
<path d="M17.867 16.946c0.125-0.124 0.224-0.271 0.292-0.434s0.103-0.337 0.103-0.513-0.035-0.35-0.103-0.513c-0.068-0.162-0.167-0.31-0.292-0.434l-6.12-6.107c-0.125-0.124-0.224-0.271-0.292-0.434s-0.103-0.337-0.103-0.513c0-0.176 0.035-0.35 0.103-0.513s0.167-0.31 0.292-0.434c0.25-0.248 0.588-0.388 0.94-0.388s0.69 0.139 0.94 0.388l6.12 6.12c0.749 0.75 1.17 1.767 1.17 2.827s-0.421 2.077-1.17 2.827l-6.12 6.12c-0.248 0.246-0.584 0.385-0.933 0.387-0.175 0.001-0.349-0.033-0.512-0.099s-0.31-0.164-0.435-0.288c-0.125-0.124-0.224-0.271-0.292-0.434s-0.103-0.337-0.103-0.513c0-0.176 0.035-0.35 0.103-0.513s0.167-0.31 0.292-0.434l6.12-6.107z"></path>
</symbol>
<symbol id="icon-burger" viewBox="0 0 32 32">
<path stroke-linejoin="round" stroke-linecap="round" stroke-miterlimit="4" stroke-width="2.2857" d="M22.667 13.333h-18.667"></path>
<path stroke-linejoin="round" stroke-linecap="round" stroke-miterlimit="4" stroke-width="2.2857" d="M28 8h-24"></path>
<path stroke-linejoin="round" stroke-linecap="round" stroke-miterlimit="4" stroke-width="2.2857" d="M28 18.667h-24"></path>
<path stroke-linejoin="round" stroke-linecap="round" stroke-miterlimit="4" stroke-width="2.2857" d="M22.667 24h-18.667"></path>
</symbol>
<symbol id="icon-cancel" viewBox="0 0 32 32">
<path stroke-linejoin="round" stroke-linecap="round" stroke-miterlimit="4" stroke-width="5.3333" d="M28.444 3.556l-24.889 24.889M3.556 3.556l24.889 24.889"></path>
</symbol>
<symbol id="icon-cart" viewBox="0 0 32 32">
<path d="M25.333 9.333h-4v-1.333c0-1.415-0.562-2.771-1.562-3.771s-2.357-1.562-3.771-1.562c-1.414 0-2.771 0.562-3.771 1.562s-1.562 2.357-1.562 3.771v1.333h-4c-0.354 0-0.693 0.14-0.943 0.391s-0.391 0.589-0.391 0.943v14.667c0 1.061 0.421 2.078 1.172 2.828s1.768 1.172 2.828 1.172h13.333c1.061 0 2.078-0.421 2.828-1.172s1.172-1.768 1.172-2.828v-14.667c0-0.354-0.14-0.693-0.391-0.943s-0.589-0.391-0.943-0.391zM13.333 8c0-0.707 0.281-1.386 0.781-1.886s1.178-0.781 1.886-0.781c0.707 0 1.385 0.281 1.886 0.781s0.781 1.178 0.781 1.886v1.333h-5.333v-1.333zM24 25.333c0 0.354-0.14 0.693-0.391 0.943s-0.589 0.391-0.943 0.391h-13.333c-0.354 0-0.693-0.14-0.943-0.391s-0.391-0.589-0.391-0.943v-13.333h2.667v1.333c0 0.354 0.14 0.693 0.391 0.943s0.589 0.391 0.943 0.391c0.354 0 0.693-0.14 0.943-0.391s0.391-0.589 0.391-0.943v-1.333h5.333v1.333c0 0.354 0.14 0.693 0.39 0.943s0.589 0.391 0.943 0.391 0.693-0.14 0.943-0.391c0.25-0.25 0.391-0.589 0.391-0.943v-1.333h2.667v13.333z"></path>
</symbol>
<symbol id="icon-lock" viewBox="0 0 32 32">
<path stroke-linejoin="round" stroke-linecap="round" stroke-miterlimit="4" stroke-width="2.2857" d="M22.667 14.667v-4c0-3.682-2.985-6.667-6.667-6.667s-6.667 2.985-6.667 6.667v4M10.4 28h11.2c2.24 0 3.36 0 4.216-0.436 0.753-0.383 1.365-0.995 1.748-1.748 0.436-0.856 0.436-1.976 0.436-4.216v-0.533c0-2.24 0-3.36-0.436-4.216-0.383-0.753-0.995-1.365-1.748-1.748-0.856-0.436-1.976-0.436-4.216-0.436h-11.2c-2.24 0-3.36 0-4.216 0.436-0.753 0.384-1.365 0.995-1.748 1.748-0.436 0.856-0.436 1.976-0.436 4.216v0.533c0 2.24 0 3.36 0.436 4.216 0.383 0.753 0.995 1.365 1.748 1.748 0.856 0.436 1.976 0.436 4.216 0.436z"></path>
</symbol>
<symbol id="icon-logo" viewBox="0 0 32 32">
<path fill="#f6f6f6" style="fill: var(--color3, #f6f6f6)" d="M0 0l16.343 16.171 15.657 15.829v-32h-32z"></path>
<path fill="#f6f6f6" style="fill: var(--color3, #f6f6f6)" d="M4.457 4.229l11.943 11.829 11.257 11.486h-23.2v-23.314z"></path>
<path fill="#4f2ee8" style="fill: var(--color4, #4f2ee8)" d="M27.733 27.618l-11.943-11.829-11.257-11.486h23.2v23.314z"></path>
<path fill="#4f2ee8" style="fill: var(--color4, #4f2ee8)" d="M9.257 9.029l13.6 13.6h-13.6v-13.6z"></path>
<path fill="#f6f6f6" style="fill: var(--color3, #f6f6f6)" d="M9.257 9.029l13.6 13.6v-13.6h-13.6z"></path>
</symbol>
<symbol id="icon-mail" viewBox="0 0 32 32">
<path stroke-linejoin="round" stroke-linecap="round" stroke-miterlimit="4" stroke-width="2.2857" d="M28.667 24l-8.857-8M12.191 16l-8.857 8M2.667 9.333l10.886 7.621c0.882 0.617 1.322 0.926 1.802 1.045 0.424 0.106 0.866 0.106 1.29 0 0.479-0.12 0.92-0.428 1.802-1.045l10.887-7.621M9.067 26.667h13.867c2.24 0 3.36 0 4.216-0.436 0.753-0.384 1.365-0.995 1.748-1.748 0.436-0.856 0.436-1.976 0.436-4.216v-8.533c0-2.24 0-3.36-0.436-4.216-0.384-0.753-0.995-1.365-1.748-1.748-0.856-0.436-1.976-0.436-4.216-0.436h-13.867c-2.24 0-3.36 0-4.216 0.436-0.753 0.383-1.365 0.995-1.748 1.748-0.436 0.856-0.436 1.976-0.436 4.216v8.533c0 2.24 0 3.36 0.436 4.216 0.384 0.753 0.995 1.365 1.748 1.748 0.856 0.436 1.976 0.436 4.216 0.436z"></path>
</symbol>
<symbol id="icon-trash" viewBox="0 0 32 32">
<path fill="none" stroke="#fff" style="stroke: var(--color5, #fff)" stroke-linejoin="round" stroke-linecap="round" stroke-miterlimit="4" stroke-width="2.9091" d="M12 4h8M4 8h24M25.333 8l-0.935 14.026c-0.14 2.104-0.21 3.157-0.665 3.954-0.4 0.702-1.004 1.267-1.731 1.619-0.826 0.4-1.881 0.4-3.99 0.4h-4.025c-2.109 0-3.163 0-3.99-0.4-0.727-0.353-1.331-0.917-1.731-1.619-0.455-0.798-0.525-1.85-0.665-3.954l-0.935-14.026M13.333 14v6.667M18.667 14v6.667"></path>
</symbol>
<symbol id="icon-userNo" viewBox="0 0 32 32">
<path fill="#4f2ee8" style="fill: var(--color4, #4f2ee8)" d="M5.333 29.333c0-2.829 1.124-5.542 3.124-7.542s4.713-3.124 7.542-3.124c2.829 0 5.542 1.124 7.542 3.124s3.124 4.713 3.124 7.542h-21.333zM16 17.333c-4.42 0-8-3.58-8-8s3.58-8 8-8c4.42 0 8 3.58 8 8s-3.58 8-8 8z"></path>
</symbol>
<symbol id="icon-userSigned" viewBox="0 0 32 32">
<path fill="#fff" style="fill: var(--color5, #fff)" d="M7.744 12h16.513l-7.423 8.391c-0.221 0.25-0.521 0.39-0.834 0.39s-0.613-0.14-0.834-0.39l-7.423-8.391z"></path>
</symbol>
</defs>
</svg>
