<!-- Generated by IcoMoon.io -->
<svg version="1.1" xmlns="http://www.w3.org/2000/svg" width="32" height="32" viewBox="0 0 32 32">
<title>error-icon</title>
<path fill="none" stroke-linejoin="miter" stroke-linecap="butt" stroke-miterlimit="10" stroke-width="0.9375" stroke="#000" d="M7.37 28.75h17.26c2.276 0 4.12-1.844 4.12-4.12v-17.26c0-2.276-1.844-4.12-4.12-4.12h-17.26c-2.276 0-4.12 1.844-4.12 4.12v17.26c0 2.276 1.844 4.12 4.12 4.12z"></path>
<path fill="none" stroke-linejoin="miter" stroke-linecap="butt" stroke-miterlimit="10" stroke-width="0.9375" stroke="#000" d="M22.842 16c0 3.779-3.063 6.842-6.842 6.842s-6.842-3.063-6.842-6.842c0-3.779 3.063-6.842 6.842-6.842s6.842 3.063 6.842 6.842z"></path>
<path fill="none" stroke-linejoin="round" stroke-linecap="round" stroke-miterlimit="10" stroke-width="0.9375" stroke="#000" d="M17.788 14.213l-3.575 3.575"></path>
<path fill="none" stroke-linejoin="round" stroke-linecap="round" stroke-miterlimit="10" stroke-width="0.9375" stroke="#000" d="M14.213 14.213l3.575 3.575"></path>
</svg>
