<svg xmlns="http://www.w3.org/2000/svg" width="1000" height="302" viewBox="0 0 2501 754"><g fill="none" fill-rule="evenodd"><path fill="#000000FF" d="M1551.263 589.474C1406.526 696.49 1196 753.509 1014.421 753.509c-254.386 0-482.456-93.86-656.14-250-13.158-12.28-1.755-28.948 14.912-19.298 186.842 108.771 417.544 173.684 656.14 173.684 160.527 0 337.72-33.334 500.878-102.632 24.56-9.649 44.736 16.667 21.052 34.21Z"/><path fill="#000000FF" d="M1611.79 520.175c-18.422-23.684-122.808-11.403-169.299-5.263-14.035 1.755-16.666-10.526-3.509-19.298 83.334-58.772 219.299-41.228 235.088-21.93 15.79 19.298-4.386 156.14-82.456 221.053-12.28 9.649-23.684 4.386-18.421-8.772 17.544-43.86 57.018-141.228 38.596-165.79Z"/><path fill="#000" fill-rule="nonzero" d="M1445.123 83.333V26.316c0-8.772 6.14-14.035 14.035-14.035h254.386c7.895 0 14.912 6.14 14.912 14.035V74.56c0 7.895-7.017 18.421-19.298 35.965l-131.579 187.72c49.123-.878 100.877 6.14 144.737 30.701 9.649 5.264 12.28 14.035 13.158 21.93v60.527c0 8.771-8.772 18.42-18.421 13.157-78.07-41.228-182.457-45.614-268.421.878-8.772 4.386-18.421-4.386-18.421-13.158v-57.895c0-8.772 0-24.561 9.649-38.597L1592.49 97.37h-132.456c-7.895 0-14.912-6.14-14.912-14.036ZM517.93 436.843h-77.193c-7.018-.878-13.158-6.141-14.035-13.159V27.193c0-7.895 7.017-14.035 14.912-14.035h71.93c7.895 0 13.158 6.14 14.035 13.158V78.07h1.754c18.421-50 54.386-73.684 101.755-73.684 48.245 0 78.947 23.684 100 73.684 18.42-50 61.403-73.684 107.017-73.684 32.456 0 67.544 13.158 89.474 43.86 24.561 33.333 19.298 81.579 19.298 124.561v250.877c0 7.895-7.017 14.035-14.912 14.035h-76.316c-7.895-.877-14.035-7.017-14.035-14.035V213.158c0-16.667 1.754-58.772-1.754-74.562-6.14-26.315-22.807-34.21-45.614-34.21-18.421 0-38.597 12.28-46.492 32.456-7.894 20.176-7.017 53.509-7.017 76.316v210.526c0 7.895-7.018 14.035-14.912 14.035h-77.193c-7.895-.877-14.036-7.017-14.036-14.035V213.158c0-43.86 7.018-109.65-47.368-109.65-55.263 0-53.509 63.159-53.509 109.65v210.526c-.877 7.018-7.017 13.158-15.79 13.158ZM1947.754 4.385c114.913 0 177.193 98.246 177.193 223.684 0 121.053-68.42 217.544-177.193 217.544-112.28 0-173.684-98.246-173.684-221.053-.877-123.684 61.404-220.175 173.684-220.175Zm0 81.579c-57.017 0-60.526 78.07-60.526 126.316 0 48.245-.877 151.754 59.65 151.754 59.648 0 63.157-83.333 63.157-134.21 0-33.334-1.754-73.685-11.403-105.264-8.772-28.07-26.316-38.596-50.878-38.596Zm325.439 350.877H2196c-7.895-.877-14.035-7.017-14.035-14.035V25.439c.877-7.018 7.017-13.158 14.912-13.158h71.93c7.018 0 12.28 5.263 14.035 11.403v60.527h1.754c21.93-54.386 51.755-79.825 105.264-79.825 34.21 0 68.42 12.28 90.35 46.491 20.176 31.58 20.176 85.088 20.176 123.684v250c-.877 7.018-7.018 12.281-14.912 12.281h-77.193c-7.018-.877-13.158-6.14-14.035-12.28v-215.79c0-43.86 5.263-107.018-48.246-107.018-18.421 0-35.965 12.281-44.737 31.58-10.526 24.56-12.28 48.245-12.28 75.438v214.035c-.878 7.895-7.895 14.035-15.79 14.035Zm-952.632-.877c-5.263 4.386-12.28 5.263-18.42 1.754-25.44-21.052-30.702-31.579-44.737-51.754-42.106 42.982-72.808 56.14-127.193 56.14-64.913 0-115.79-40.35-115.79-120.175 0-63.158 34.21-105.263 82.456-126.316 42.105-18.421 100.877-21.93 145.614-27.193v-9.65c0-18.42 1.755-40.35-9.649-56.14-9.649-14.035-27.193-20.175-42.982-20.175-29.825 0-56.14 14.912-62.281 46.491-1.754 7.018-6.14 14.035-13.158 14.035l-74.561-7.894c-6.14-1.755-13.158-6.14-11.404-15.79C1046 28.07 1127.58.878 1201.263.878c37.72 0 86.842 9.648 116.667 38.596 37.72 35.087 34.21 82.456 34.21 133.333v120.175c0 35.965 14.913 51.755 28.948 71.93 5.263 7.018 6.14 15.79 0 20.176-16.667 13.158-44.737 37.719-60.527 50.877Zm-78.07-188.597v-16.666c-56.14 0-114.912 12.28-114.912 78.07 0 33.333 17.544 56.14 47.368 56.14 21.93 0 41.228-13.158 53.51-35.087 14.911-27.193 14.034-52.632 14.034-82.457ZM288.105 437.72c-25.438-21.052-30.701-31.579-44.737-51.754-42.105 42.982-72.807 56.14-127.193 56.14C51.263 442.105.386 401.755.386 321.93c0-63.158 34.21-105.263 82.456-126.316 42.105-18.421 100.877-21.93 145.614-27.193v-9.65c0-18.42 1.755-40.35-9.649-56.14-9.65-14.035-27.193-20.175-42.982-20.175-29.825 0-56.14 14.912-62.281 46.491-1.755 7.018-6.14 14.035-13.158 14.035l-74.561-7.894c-6.14-1.755-13.158-6.14-11.404-15.79C31.965 28.07 113.544.878 187.228.878c37.72 0 86.842 9.648 116.667 38.596 37.719 35.087 34.21 82.456 34.21 133.333v120.175c0 35.965 14.913 51.755 28.948 71.93 5.263 7.018 6.14 15.79 0 20.176-16.667 13.158-44.737 37.719-60.527 50.877-5.263 4.386-12.28 5.263-18.42 1.754Zm-58.772-190.35v-16.667c-56.14 0-114.912 12.28-114.912 78.07 0 33.333 17.544 56.14 47.368 56.14 21.93 0 41.229-13.158 53.51-35.087 14.912-27.193 14.034-52.632 14.034-82.457Z"/></g></svg>